<svg xmlns="http://www.w3.org/2000/svg" width="720" height="460" viewBox="0 0 720 460"><defs><filter id="shadow" x="-30%" y="-30%" width="160%" height="170%"><feDropShadow dx="0" dy="12" stdDeviation="12" flood-color="#182c40" flood-opacity=".12"/></filter></defs><rect width="720" height="460" fill="#e9f2fa"/><g font-family="Segoe UI,Arial,sans-serif"><rect x="50" y="92" width="382" height="244" rx="12" fill="#25313a" filter="url(#shadow)"/><svg x="60" y="102" width="362" height="221" viewBox="0 0 500 200" preserveAspectRatio="xMidYMid slice"><rect width="500" height="200" fill="#c5dfeb"/><circle cx="394" cy="46" r="23" fill="#fff6d8"/><path d="M0 130L100 32 212 140 322 58 500 140V200H0Z" fill="#8fb2b5"/><path d="M0 167L135 112 251 172 372 117 500 153V200H0Z" fill="#477c72"/><path d="M0 181Q220 150 500 184V200H0Z" fill="#b8d5d8"/></svg><rect x="444" y="122" width="226" height="213" rx="10" fill="#25313a" filter="url(#shadow)"/><rect x="454" y="132" width="206" height="193" rx="10" fill="#fff" /><text x="473" y="171" font-size="17" fill="#202126" font-weight="600">Weekend notes</text><path d="M476 204L637 204" stroke="#dfe5ea" stroke-width="2" fill="none"/><path d="M476 236L637 236" stroke="#dfe5ea" stroke-width="2" fill="none"/><path d="M476 268L637 268" stroke="#dfe5ea" stroke-width="2" fill="none"/><rect x="218" y="336" width="36" height="44" rx="3" fill="#52616a" /><rect x="150" y="378" width="170" height="8" rx="3" fill="#52616a" /><rect x="540" y="335" width="25" height="44" rx="3" fill="#52616a" /><rect x="491" y="376" width="128" height="8" rx="3" fill="#52616a" /></g></svg>